# xmcd CD database file
#
# Track frame offsets:
#	150
#	17882
#	60012
#	81522
#
# Disc length: 1390 seconds
#
# Revision: 2
# Processed by: cddbd v1.4b41PL1 Copyright (c) Steve Scherf et al.
# Submitted via: Feurio! 1.52 - http://www.feurio.com
#
DISCID=26056c04
DTITLE=Sting - Dessert Rose
DYEAR=1900
DGENRE=
TTITLE0=Dessert Rose (Radio  Edit)
TTITLE1=Dessert Rose ( Melodic Club Mix)
TTITLE2=essert Rose ( Melodic Mix Radio Edit)
TTITLE3=Brand New Day
EXTD=
EXTT0=
EXTT1=
EXTT2=
EXTT3=
PLAYORDER=
